<svg id="visual" viewBox="0 0 960 540" width="960" height="540" xmlns="http://www.w3.org/2000/svg" xmlns:xlink="http://www.w3.org/1999/xlink" version="1.1"><rect x="0" y="0" width="960" height="540" fill="#001220"></rect><defs><linearGradient id="grad1_0" x1="43.8%" y1="0%" x2="100%" y2="100%"><stop offset="14.444444444444446%" stop-color="#001220" stop-opacity="1"></stop><stop offset="85.55555555555554%" stop-color="#001220" stop-opacity="1"></stop></linearGradient></defs><defs><linearGradient id="grad2_0" x1="0%" y1="0%" x2="56.3%" y2="100%"><stop offset="14.444444444444446%" stop-color="#001220" stop-opacity="1"></stop><stop offset="85.55555555555554%" stop-color="#001220" stop-opacity="1"></stop></linearGradient></defs><g transform="translate(960, 0)"><path d="M0 324C-21.6 324.1 -43.2 324.3 -63.2 317.8C-83.2 311.3 -101.6 298.2 -118.2 285.5C-134.8 272.8 -149.6 260.5 -167.2 250.3C-184.8 240 -205.3 231.8 -216.4 216.4C-227.5 201 -229.3 178.4 -243.6 162.8C-258 147.2 -284.9 138.6 -294.7 122.1C-304.5 105.6 -297.1 81.2 -299.1 59.5C-301.2 37.8 -312.6 18.9 -324 0L0 0Z" fill="#f9adad"></path></g><g transform="translate(0, 540)"><path d="M0 -324C17.8 -307.7 35.6 -291.5 57.9 -291.3C80.2 -291.1 107 -307 124 -299.3C141 -291.7 148.2 -260.4 163.3 -244.5C178.5 -228.5 201.5 -227.9 217.1 -217.1C232.7 -206.3 240.9 -185.4 249.4 -166.7C257.9 -148 266.7 -131.5 276.2 -114.4C285.7 -97.3 296 -79.7 304 -60.5C312.1 -41.3 318.1 -20.7 324 0L0 0Z" fill="#f9adad"></path></g></svg>