<svg id="visual" viewBox="0 0 960 540" width="960" height="540" xmlns="http://www.w3.org/2000/svg" xmlns:xlink="http://www.w3.org/1999/xlink" version="1.1"><rect x="0" y="0" width="960" height="540" fill="#001220"></rect><defs><linearGradient id="grad1_0" x1="43.8%" y1="0%" x2="100%" y2="100%"><stop offset="14.444444444444446%" stop-color="#001220" stop-opacity="1"></stop><stop offset="85.55555555555554%" stop-color="#001220" stop-opacity="1"></stop></linearGradient></defs><defs><linearGradient id="grad2_0" x1="0%" y1="0%" x2="56.3%" y2="100%"><stop offset="14.444444444444446%" stop-color="#001220" stop-opacity="1"></stop><stop offset="85.55555555555554%" stop-color="#001220" stop-opacity="1"></stop></linearGradient></defs><g transform="translate(960, 0)"><path d="M0 324C-20 315.4 -40.1 306.8 -59.9 301.1C-79.7 295.4 -99.3 292.6 -119.4 288.3C-139.5 283.9 -160.1 277.9 -179.4 268.6C-198.8 259.2 -217 246.5 -229.1 229.1C-241.2 211.7 -247.1 189.7 -254.4 170C-261.7 150.3 -270.4 133 -278.1 115.2C-285.8 97.4 -292.6 79 -300.1 59.7C-307.6 40.4 -315.8 20.2 -324 0L0 0Z" fill="#FBAE3C"></path></g><g transform="translate(0, 540)"><path d="M0 -324C20.2 -315.2 40.3 -306.3 59.1 -297.2C77.9 -288 95.3 -278.6 111.7 -269.8C128.2 -260.9 143.8 -252.7 166.1 -248.6C188.4 -244.5 217.5 -244.6 229.1 -229.1C240.7 -213.6 235 -182.7 243.6 -162.8C252.3 -142.9 275.3 -134 285.5 -118.2C295.6 -102.5 292.9 -80 297.2 -59.1C301.4 -38.3 312.7 -19.1 324 0L0 0Z" fill="#FBAE3C"></path></g></svg>