<svg id="visual" viewBox="0 0 960 540" width="960" height="540" xmlns="http://www.w3.org/2000/svg" xmlns:xlink="http://www.w3.org/1999/xlink" version="1.1"><rect x="0" y="0" width="960" height="540" fill="#001122"></rect><defs><linearGradient id="grad1_0" x1="43.8%" y1="0%" x2="100%" y2="100%"><stop offset="14.444444444444446%" stop-color="#001122" stop-opacity="1"></stop><stop offset="85.55555555555554%" stop-color="#001122" stop-opacity="1"></stop></linearGradient></defs><defs><linearGradient id="grad2_0" x1="0%" y1="0%" x2="56.3%" y2="100%"><stop offset="14.444444444444446%" stop-color="#001122" stop-opacity="1"></stop><stop offset="85.55555555555554%" stop-color="#001122" stop-opacity="1"></stop></linearGradient></defs><g transform="translate(960, 0)"><path d="M0 177C-21.3 182.5 -42.6 188 -58.4 179.7C-74.2 171.5 -84.6 149.4 -98.2 135.1C-111.7 120.8 -128.5 114.3 -140 101.7C-151.4 89.1 -157.6 70.5 -161.7 52.5C-165.8 34.6 -167.9 17.3 -170 0L0 0Z" fill="#F7770F"></path></g><g transform="translate(0, 540)"><path d="M0 -161C19.6 -169.9 39.1 -178.7 56.9 -175C74.6 -171.3 90.5 -154.9 101.1 -139.2C111.7 -123.4 117.1 -108.2 131.9 -95.8C146.7 -83.4 171 -73.9 179.7 -58.4C188.5 -42.9 181.8 -21.5 175 0L0 0Z" fill="#F7770F"></path></g></svg>