<svg id="visual" viewBox="0 0 960 540" width="960" height="540" xmlns="http://www.w3.org/2000/svg" xmlns:xlink="http://www.w3.org/1999/xlink" version="1.1"><rect x="0" y="0" width="960" height="540" fill="#5eb9ff"></rect><g fill="#ffffff"><circle r="13" cx="611" cy="202"></circle><circle r="1" cx="631" cy="512"></circle><circle r="4" cx="283" cy="281"></circle><circle r="6" cx="901" cy="380"></circle><circle r="4" cx="448" cy="431"></circle><circle r="0" cx="693" cy="257"></circle><circle r="8" cx="83" cy="156"></circle><circle r="0" cx="55" cy="72"></circle><circle r="6" cx="76" cy="375"></circle><circle r="2" cx="743" cy="76"></circle><circle r="9" cx="804" cy="13"></circle><circle r="4" cx="478" cy="62"></circle><circle r="10" cx="64" cy="192"></circle><circle r="0" cx="308" cy="374"></circle><circle r="6" cx="582" cy="420"></circle><circle r="7" cx="722" cy="409"></circle><circle r="6" cx="96" cy="517"></circle><circle r="9" cx="354" cy="66"></circle><circle r="7" cx="614" cy="52"></circle><circle r="0" cx="767" cy="204"></circle><circle r="6" cx="135" cy="237"></circle><circle r="1" cx="505" cy="490"></circle><circle r="3" cx="160" cy="361"></circle><circle r="1" cx="108" cy="8"></circle><circle r="11" cx="426" cy="233"></circle><circle r="1" cx="8" cy="395"></circle><circle r="7" cx="316" cy="459"></circle><circle r="1" cx="553" cy="289"></circle><circle r="6" cx="931" cy="361"></circle><circle r="3" cx="641" cy="375"></circle><circle r="9" cx="547" cy="501"></circle><circle r="10" cx="842" cy="426"></circle><circle r="11" cx="191" cy="55"></circle><circle r="8" cx="816" cy="337"></circle><circle r="9" cx="798" cy="483"></circle><circle r="1" cx="29" cy="12"></circle><circle r="1" cx="597" cy="178"></circle><circle r="3" cx="128" cy="71"></circle><circle r="0" cx="819" cy="303"></circle><circle r="2" cx="566" cy="376"></circle><circle r="6" cx="697" cy="88"></circle><circle r="4" cx="180" cy="181"></circle><circle r="2" cx="449" cy="384"></circle><circle r="0" cx="919" cy="465"></circle><circle r="11" cx="729" cy="242"></circle><circle r="4" cx="34" cy="262"></circle><circle r="4" cx="345" cy="36"></circle><circle r="9" cx="347" cy="513"></circle><circle r="5" cx="356" cy="418"></circle><circle r="7" cx="573" cy="12"></circle><circle r="0" cx="424" cy="318"></circle><circle r="4" cx="105" cy="366"></circle><circle r="10" cx="692" cy="525"></circle><circle r="9" cx="157" cy="320"></circle><circle r="1" cx="149" cy="432"></circle><circle r="1" cx="485" cy="252"></circle><circle r="10" cx="185" cy="512"></circle><circle r="6" cx="380" cy="33"></circle><circle r="10" cx="231" cy="305"></circle><circle r="0" cx="685" cy="418"></circle><circle r="2" cx="401" cy="270"></circle><circle r="7" cx="888" cy="305"></circle><circle r="6" cx="357" cy="160"></circle><circle r="8" cx="495" cy="415"></circle><circle r="11" cx="751" cy="426"></circle><circle r="5" cx="220" cy="191"></circle><circle r="11" cx="940" cy="430"></circle><circle r="6" cx="839" cy="107"></circle><circle r="9" cx="505" cy="63"></circle><circle r="3" cx="361" cy="278"></circle><circle r="7" cx="543" cy="186"></circle><circle r="0" cx="558" cy="52"></circle><circle r="7" cx="380" cy="393"></circle><circle r="7" cx="612" cy="402"></circle><circle r="11" cx="292" cy="121"></circle><circle r="8" cx="483" cy="169"></circle><circle r="11" cx="812" cy="73"></circle><circle r="6" cx="259" cy="90"></circle><circle r="4" cx="407" cy="370"></circle><circle r="5" cx="465" cy="215"></circle><circle r="2" cx="829" cy="481"></circle><circle r="4" cx="687" cy="122"></circle><circle r="1" cx="923" cy="104"></circle><circle r="1" cx="568" cy="246"></circle><circle r="8" cx="504" cy="191"></circle><circle r="6" cx="958" cy="247"></circle><circle r="2" cx="729" cy="107"></circle><circle r="8" cx="613" cy="145"></circle><circle r="4" cx="70" cy="278"></circle><circle r="10" cx="216" cy="463"></circle><circle r="5" cx="758" cy="364"></circle><circle r="0" cx="464" cy="119"></circle><circle r="4" cx="195" cy="323"></circle><circle r="0" cx="404" cy="343"></circle><circle r="0" cx="790" cy="281"></circle><circle r="1" cx="812" cy="100"></circle><circle r="3" cx="436" cy="24"></circle><circle r="2" cx="241" cy="147"></circle><circle r="4" cx="863" cy="158"></circle><circle r="0" cx="844" cy="347"></circle><circle r="2" cx="537" cy="248"></circle><circle r="1" cx="284" cy="489"></circle><circle r="6" cx="846" cy="246"></circle><circle r="10" cx="206" cy="115"></circle><circle r="9" cx="523" cy="166"></circle><circle r="11" cx="288" cy="419"></circle><circle r="11" cx="590" cy="37"></circle><circle r="7" cx="323" cy="316"></circle><circle r="3" cx="276" cy="381"></circle><circle r="11" cx="209" cy="346"></circle><circle r="8" cx="487" cy="24"></circle><circle r="0" cx="791" cy="509"></circle><circle r="9" cx="66" cy="245"></circle><circle r="2" cx="96" cy="234"></circle><circle r="6" cx="82" cy="459"></circle><circle r="8" cx="605" cy="328"></circle><circle r="5" cx="895" cy="480"></circle><circle r="10" cx="143" cy="527"></circle><circle r="9" cx="898" cy="409"></circle><circle r="0" cx="129" cy="337"></circle><circle r="0" cx="821" cy="376"></circle><circle r="8" cx="164" cy="211"></circle><circle r="3" cx="800" cy="436"></circle><circle r="7" cx="714" cy="330"></circle><circle r="3" cx="250" cy="51"></circle><circle r="6" cx="925" cy="153"></circle><circle r="8" cx="835" cy="15"></circle><circle r="0" cx="172" cy="117"></circle><circle r="0" cx="382" cy="467"></circle><circle r="8" cx="359" cy="194"></circle><circle r="10" cx="654" cy="467"></circle><circle r="4" cx="386" cy="107"></circle><circle r="11" cx="230" cy="22"></circle><circle r="10" cx="125" cy="306"></circle><circle r="4" cx="11" cy="147"></circle><circle r="10" cx="102" cy="34"></circle><circle r="6" cx="102" cy="436"></circle><circle r="5" cx="229" cy="527"></circle><circle r="10" cx="904" cy="191"></circle><circle r="11" cx="206" cy="418"></circle><circle r="7" cx="325" cy="214"></circle><circle r="5" cx="785" cy="228"></circle></g></svg>